<svg height="253.774" viewBox="0 0 160.465 253.774" width="160.465" xmlns="http://www.w3.org/2000/svg"><path d="m83.188 117.186a4.8 4.8 0 0 1 -3.2-3.039l-2.667-7.556h-.644q-2.588-.039-5.172-.172l-2.727 7.726a4.806 4.806 0 0 1 -3.2 3.039 4.871 4.871 0 0 1 -1.4.205 4.809 4.809 0 0 1 -2.939-1.009l-47.9-23.43a16.061 16.061 0 0 1 -13.288-14.81c-1.2-18.02 19.054-46.84 23.649-59.108 5.526-14.732 17.742-14.49 21.58-14.017a86.822 86.822 0 0 1 55.12-1.015 25.53 25.53 0 0 1 2.753 1.066c3.389-.487 16.219-1.232 21.919 13.971 4.6 12.263 21.615 38.929 20.415 56.949a16.06 16.06 0 0 1 -13.3 14.813l-44.661 25.584a4.809 4.809 0 0 1 -2.939 1.009 4.871 4.871 0 0 1 -1.399-.206zm-55.211-39.949 11.581 5.846-5.942-27.333zm77.584 5.044 12-7.2-4.931-21.981z" fill="#2d81f7" opacity=".5" stroke="#2d81f7" transform="translate(14.422 70.342)"/><path d="m81.715 114.616a4.712 4.712 0 0 1 -3.14-2.972l-2.619-7.39h-.632q-2.543-.038-5.081-.169l-2.678 7.557a4.712 4.712 0 0 1 -3.14 2.972 4.846 4.846 0 0 1 -1.374.2 4.738 4.738 0 0 1 -2.888-.987l-47.051-22.913a15.734 15.734 0 0 1 -13.062-14.487c-1.178-17.627 18.718-45.817 23.234-57.813 5.424-14.403 17.416-14.17 21.194-13.709a85.645 85.645 0 0 1 54.142-1 25.132 25.132 0 0 1 2.7 1.043c3.328-.476 15.931-1.205 21.532 13.664 4.517 12 21.233 38.077 20.054 55.7a15.734 15.734 0 0 1 -13.057 14.488l-43.872 25.03a4.738 4.738 0 0 1 -2.888.987 4.846 4.846 0 0 1 -1.374-.201zm-54.232-39.074 11.375 5.718-5.837-26.732zm76.211 4.934 11.785-7.044-4.84-21.5z" fill="#2d81f7" stroke="#2d81f7" transform="translate(11.847 74.205)"/><circle cx="89.348" cy="29.135" fill="#2f2e41" r="29.135"/><path d="m173.462 380.473-.772-13.206 50.572-9.267 1.138 19.5z" fill="#ffb8b8" transform="translate(-111.796 -164.305)"/><path d="m16.064 0h25.514v16.064h-41.578a16.064 16.064 0 0 1 16.064-16.064z" fill="#2f2e41" transform="matrix(.0583481 .9982963 -.9982963 .0583481 63.173 177.27)"/><path d="m197.586 381.088-8.4 10.22-43.418-27.537 12.4-15.083z" fill="#ffb8b8" transform="translate(-113.925 -165.042)"/><path d="m16.064 0h25.514v16.064h-41.578a16.064 16.064 0 0 1 16.064-16.064z" fill="#2f2e41" transform="matrix(.635 -.773 .773 .635 56.143 243.574)"/><path d="m444.315 578.081-5.74 27.062a4.316 4.316 0 0 0 4.153 5.211l56.434.91a4.316 4.316 0 0 0 4.32-5.066l-4.936-27.972a4.316 4.316 0 0 0 -4.251-3.566h-45.758a4.316 4.316 0 0 0 -4.222 3.421z" fill="#2f2e41" transform="translate(-384.827 -409.561)"/><path d="m457.6 588.24s-55.033-34.531-65.824-16.186c-5.4 9.172-2.7 18.075 1.349 24.684a37.369 37.369 0 0 0 15.542 13.911l44.617 21.834 16.186-17.265-10.791-9.712z" fill="#37364e" transform="translate(-388.759 -410.192)"/><path d="m479.666 582.056s71.219-20.5 57.191 18.344-66.9 23.74-66.9 23.74l-5.4-16.186 18.343-12.949z" fill="#37364e" transform="translate(-382.765 -409.404)"/><circle cx="89.713" cy="35.787" fill="#fff" r="26.503" stroke="#707070"/><path d="m454.823 592.8a10.851 10.851 0 0 1 15.62-5.732l29.121-25.277 2.635 19.864-28.057 20.958a10.91 10.91 0 0 1 -19.318-9.813z" fill="#ffb8b8" transform="translate(-383.588 -410.579)"/><path d="m488.108 590.605a10.851 10.851 0 0 0 -15.62-5.732l-29.121-25.273-2.635 19.864 28.057 20.958a10.91 10.91 0 0 0 19.318-9.813z" fill="#ffb8b8" transform="translate(-384.649 -410.752)"/><path d="m520.451 610.642h-90.888a7.562 7.562 0 0 1 -7.554-7.553l-6.5-52.875a7.562 7.562 0 0 1 7.554-7.553h103.826a7.562 7.562 0 0 1 7.554 7.553l-6.443 52.875a7.562 7.562 0 0 1 -7.549 7.553z" fill="#37364e" stroke="#fff" transform="translate(-387.278 -412.092)"/><circle cx="87.729" cy="164.559" fill="#fff" r="6.474"/><path d="m447.125 455.964c-1.571-3.984 1.006-8.732 4.83-10.662s8.437-1.563 12.526-.291c3.437 1.069 6.658 2.726 10.01 4.034a22.4 22.4 0 0 0 10.524 1.874c3.576-.4 7.136-2.409 8.6-5.7 1.517-3.408.485-7.568-1.851-10.477a20.286 20.286 0 0 0 -9.293-5.972c-7.885-2.778-16.994-2.859-24.314 1.179s-12.3 12.636-10.782 20.859" fill="#2f2e41" transform="translate(-384.18 -421.255)"/></svg>